<svg version="1.1" xmlns="http://www.w3.org/2000/svg" viewBox="0 0 60 100">
	<g stroke-width="1" stroke-linecap="round" stroke-linejoin="round">
		<path class="s0" d="M 5 10 L 11 5 H 47.5 L 42.5 15 H 15 Z"/>
		<path class="s1" d="M 50 5 L 55 11 V 45.25 L 52 48.75 L 45 42.75 V 15 Z"/>
		<path class="s2" d="M 52 51.25 L 55 54.75 V 89 L 50 95 L 45 85 V 57.25 Z"/>
		<path class="s3" d="M 5 90 L 15 85 H 42.5 L 47.5 95 H 11 Z"/>
		<path class="s4" d="M 8 51.25 L 15 57.25 V 82.5 L 5 87.5 V 54.75 Z"/>
		<path class="s5" d="M 8 48.75 L 5 45.25 V 12.5 L 15 17.5 V 42.75 Z"/>
		<path class="s6" d="M 10 50 L 16 45 H 44 L 50 50 L 44 55 H 16 Z"/>
	</g>
</svg>
