<svg version="1.1" xmlns="http://www.w3.org/2000/svg" viewBox="0 0 60 100">
	<g stroke-width="1" stroke-linecap="round" stroke-linejoin="round">
		<path class="s0" d="M 5 10 L 11 5 H 47.5 L 42.5 15 H 15 Z"/>
		<path class="s1" d="M 50 5 L 55 11 V 46 L 52 49.5 L 45 43.5 V 15 Z"/>
		<path class="s2" d="M 52 52 L 55 55.5 V 89 L 50 95 L 45 85 V 58 Z"/>
		<path class="s3" d="M 5 90 L 15 85 H 42.5 L 47.5 95 H 11 Z"/>
		<path class="s4" d="M 8 52 L 15 58 V 82.5 L 5 87.5 V 55.5 Z"/>
		<path class="s5" d="M 8 49.5 L 5 46 V 12.5 L 15 17.5 V 43.5 Z"/>
		<path class="s6" d="M 10 50.75 L 16.5 45.25 H 43.5 L 50 50.75 L 43.5 56.25 H 16.5 Z"/>
	</g>
</svg>
